<svg width="148" height="40" viewBox="0 0 148 40" fill="none" xmlns="http://www.w3.org/2000/svg">
<path d="M15.745 0C7.08523 0 0 7.03479 0 15.6329C0 24.231 7.08523 31.2658 15.745 31.2658C24.4047 31.2658 31.4899 24.2744 31.4899 15.6329C31.4899 6.99127 24.4484 0 15.745 0ZM15.745 25.6639C10.3655 25.6639 6.03548 21.2781 6.03548 15.6329C6.03548 9.98766 10.3655 5.6017 15.745 5.6017C21.1244 5.6017 25.4543 9.98766 25.4543 15.6329C25.4543 21.2781 21.1244 25.6639 15.745 25.6639Z" fill="black"/>
<path d="M47.4096 8.68488C44.5668 8.68488 41.8114 9.81395 40.3681 11.7247V9.1191H34.6824V39.5164H40.3681V28.53C41.8114 30.3104 44.4793 31.2658 47.4096 31.2658C53.5326 31.2658 58.3437 26.489 58.3437 19.9753C58.3437 13.4617 53.5326 8.68488 47.4096 8.68488ZM46.4474 26.3588C43.211 26.3588 40.3244 23.8401 40.3244 19.9753C40.3244 16.1105 43.211 13.5918 46.4474 13.5918C49.6839 13.5918 52.5704 16.1105 52.5704 19.9753C52.5704 23.8401 49.6839 26.3588 46.4474 26.3588Z" fill="black"/>
<path d="M71.7273 8.68488C65.5169 8.68488 60.6184 13.5051 60.6184 19.9753C60.6184 26.4456 64.9046 31.2658 71.9023 31.2658C77.6317 31.2658 81.3055 27.8352 82.4427 23.9703H76.8882C76.1884 25.5771 74.2203 26.7061 71.8586 26.7061C68.9282 26.7061 66.6977 24.6652 66.1729 21.7557H82.7051V19.5411C82.7051 13.6352 78.5502 8.68488 71.7273 8.68488ZM66.2166 17.7607C66.829 15.0249 69.1032 13.2444 71.8586 13.2444C74.7889 13.2444 77.0194 15.1551 77.2819 17.7607H66.2166Z" fill="black"/>
<path d="M97.8373 8.68488C95.3006 8.68488 92.6327 9.81395 91.4081 11.6811V9.1191H85.7224V30.8314H91.4081V19.1503C91.4081 15.7631 93.245 13.5485 96.219 13.5485C98.9744 13.5485 100.461 15.6329 100.461 18.5423V30.8314H106.147V17.6304C106.147 12.2457 102.823 8.68488 97.8373 8.68488Z" fill="black"/>
<path d="M120.709 0.434998L108.332 30.8323H114.411L117.035 24.1883H131.119L133.743 30.8323H139.909L127.62 0.434998H120.709ZM119.003 19.1511L124.077 6.42764L129.106 19.1511H119.003Z" fill="black"/>
<path d="M148 0.434998H142.227V30.8323H148V0.434998Z" fill="black"/>
</svg>
